<svg preserveAspectRatio="none" width="100%" height="100%" overflow="visible" style="display: block;" viewBox="0 0 102.247 102.247" fill="none" xmlns="http://www.w3.org/2000/svg">
<g id="Settingv">









<g id="Vector_10" filter="url(#filter9_dddii_0_11)">
<path d="M89.0139 36.6307L79.8687 35.2241L79.2244 33.6671L84.6965 26.2055C85.1031 25.6564 85.2981 24.9792 85.2458 24.298C85.1935 23.6168 84.8974 22.9773 84.4118 22.4968L74.8454 12.9293C74.3642 12.4442 73.7246 12.1486 73.0434 12.0964C72.3623 12.0443 71.6851 12.239 71.1357 12.645L63.3172 18.379L62.1847 17.9099L60.7111 8.32892C60.611 7.65297 60.2705 7.03581 59.752 6.59077C59.2334 6.14573 58.5718 5.90269 57.8884 5.90628H44.359C43.6759 5.90266 43.0143 6.14557 42.4958 6.59042C41.9773 7.03527 41.6366 7.6522 41.5364 8.32798L40.0628 17.9035L38.9237 18.3753L31.1105 12.646C30.5612 12.24 29.8842 12.0453 29.2032 12.0974C28.5221 12.1496 27.8827 12.4452 27.4017 12.9302L17.837 22.4958C17.351 22.9764 17.0546 23.6161 17.0021 24.2976C16.9495 24.9791 17.1444 25.6567 17.551 26.2062L23.0231 33.6671L22.3788 35.2241L13.2336 36.6307C12.5579 36.7315 11.9411 37.0724 11.4962 37.5909C11.0513 38.1094 10.8082 38.7709 10.8112 39.4541V52.9835C10.8079 53.6668 11.051 54.3283 11.4959 54.8469C11.9408 55.3655 12.5578 55.7063 13.2336 55.8068L22.4168 57.2194L23.0454 58.7397L17.551 66.2321C17.1444 66.7811 16.9494 67.4583 17.0017 68.1395C17.054 68.8207 17.3501 69.4602 17.8357 69.9408L27.4021 79.5083C27.8828 79.9941 28.5225 80.2902 29.2039 80.3425C29.8854 80.3947 30.5627 80.1994 31.1118 79.7925L38.9303 74.0586L40.0628 74.5277L41.5364 84.1086C41.6364 84.7846 41.977 85.4017 42.4955 85.8468C43.0141 86.2918 43.6757 86.5349 44.359 86.5313H57.8884C58.5717 86.5349 59.2334 86.2919 59.7519 85.8469C60.2704 85.4019 60.611 84.7848 60.7111 84.1089L62.1847 74.5267L63.3172 74.0576L71.137 79.7916C71.6859 80.1986 72.3631 80.394 73.0444 80.3418C73.7258 80.2895 74.3654 79.9933 74.8458 79.5074L84.4109 69.9417C84.8968 69.4611 85.1933 68.8214 85.2458 68.1399C85.2984 67.4584 85.1035 66.7808 84.6969 66.2314L79.2248 58.7705L79.8691 57.2135L89.0143 55.8068C89.6899 55.706 90.3066 55.365 90.7514 54.8465C91.1962 54.328 91.4393 53.6666 91.4362 52.9835V39.4541C91.4393 38.7709 91.1962 38.1094 90.7513 37.5909C90.3064 37.0724 89.6896 36.7315 89.0139 36.6307ZM51.1237 69.0625C46.6057 69.0625 42.1891 67.7228 38.4324 65.2127C34.6758 62.7026 31.7479 59.1349 30.0189 54.9607C28.2899 50.7866 27.8375 46.1934 28.7189 41.7622C29.6004 37.3309 31.776 33.2606 34.9708 30.0658C38.1655 26.8711 42.2359 24.6954 46.6671 23.814C51.0984 22.9325 55.6915 23.3849 59.8657 25.1139C64.0398 26.8429 67.6075 29.7708 70.1176 33.5275C72.6277 37.2841 73.9675 41.7007 73.9675 46.2188C73.9594 52.2748 71.5501 58.0805 67.2678 62.3628C62.9855 66.6451 57.1798 69.0545 51.1237 69.0625Z" fill="url(#paint18_linear_0_11)"/>
<path d="M89.0139 36.6307L79.8687 35.2241L79.2244 33.6671L84.6965 26.2055C85.1031 25.6564 85.2981 24.9792 85.2458 24.298C85.1935 23.6168 84.8974 22.9773 84.4118 22.4968L74.8454 12.9293C74.3642 12.4442 73.7246 12.1486 73.0434 12.0964C72.3623 12.0443 71.6851 12.239 71.1357 12.645L63.3172 18.379L62.1847 17.9099L60.7111 8.32892C60.611 7.65297 60.2705 7.03581 59.752 6.59077C59.2334 6.14573 58.5718 5.90269 57.8884 5.90628H44.359C43.6759 5.90266 43.0143 6.14557 42.4958 6.59042C41.9773 7.03527 41.6366 7.6522 41.5364 8.32798L40.0628 17.9035L38.9237 18.3753L31.1105 12.646C30.5612 12.24 29.8842 12.0453 29.2032 12.0974C28.5221 12.1496 27.8827 12.4452 27.4017 12.9302L17.837 22.4958C17.351 22.9764 17.0546 23.6161 17.0021 24.2976C16.9495 24.9791 17.1444 25.6567 17.551 26.2062L23.0231 33.6671L22.3788 35.2241L13.2336 36.6307C12.5579 36.7315 11.9411 37.0724 11.4962 37.5909C11.0513 38.1094 10.8082 38.7709 10.8112 39.4541V52.9835C10.8079 53.6668 11.051 54.3283 11.4959 54.8469C11.9408 55.3655 12.5578 55.7063 13.2336 55.8068L22.4168 57.2194L23.0454 58.7397L17.551 66.2321C17.1444 66.7811 16.9494 67.4583 17.0017 68.1395C17.054 68.8207 17.3501 69.4602 17.8357 69.9408L27.4021 79.5083C27.8828 79.9941 28.5225 80.2902 29.2039 80.3425C29.8854 80.3947 30.5627 80.1994 31.1118 79.7925L38.9303 74.0586L40.0628 74.5277L41.5364 84.1086C41.6364 84.7846 41.977 85.4017 42.4955 85.8468C43.0141 86.2918 43.6757 86.5349 44.359 86.5313H57.8884C58.5717 86.5349 59.2334 86.2919 59.7519 85.8469C60.2704 85.4019 60.611 84.7848 60.7111 84.1089L62.1847 74.5267L63.3172 74.0576L71.137 79.7916C71.6859 80.1986 72.3631 80.394 73.0444 80.3418C73.7258 80.2895 74.3654 79.9933 74.8458 79.5074L84.4109 69.9417C84.8968 69.4611 85.1933 68.8214 85.2458 68.1399C85.2984 67.4584 85.1035 66.7808 84.6969 66.2314L79.2248 58.7705L79.8691 57.2135L89.0143 55.8068C89.6899 55.706 90.3066 55.365 90.7514 54.8465C91.1962 54.328 91.4393 53.6666 91.4362 52.9835V39.4541C91.4393 38.7709 91.1962 38.1094 90.7513 37.5909C90.3064 37.0724 89.6896 36.7315 89.0139 36.6307ZM51.1237 69.0625C46.6057 69.0625 42.1891 67.7228 38.4324 65.2127C34.6758 62.7026 31.7479 59.1349 30.0189 54.9607C28.2899 50.7866 27.8375 46.1934 28.7189 41.7622C29.6004 37.3309 31.776 33.2606 34.9708 30.0658C38.1655 26.8711 42.2359 24.6954 46.6671 23.814C51.0984 22.9325 55.6915 23.3849 59.8657 25.1139C64.0398 26.8429 67.6075 29.7708 70.1176 33.5275C72.6277 37.2841 73.9675 41.7007 73.9675 46.2188C73.9594 52.2748 71.5501 58.0805 67.2678 62.3628C62.9855 66.6451 57.1798 69.0545 51.1237 69.0625Z" stroke="url(#paint19_linear_0_11)" stroke-width="1.10714" stroke-linecap="round" stroke-linejoin="round"/>
</g><g filter="url(#csKeyEmboss_0_11)"><circle cx="48.65" cy="48.65" r="16.5" fill="none" stroke="url(#csKeyGrad_0_11)" stroke-width="2.6"/><g fill="none" stroke="url(#csKeyGrad_0_11)" stroke-width="3" stroke-linecap="round" stroke-linejoin="round"><circle cx="48.65" cy="42.05" r="5"/><line x1="48.65" y1="47.05" x2="48.65" y2="59.05"/><line x1="48.65" y1="53.55" x2="54.05" y2="53.55"/><line x1="48.65" y1="59.05" x2="53.05" y2="59.05"/></g></g>


</g>
<defs><linearGradient id="csKeyGrad_0_11" x1="48.65" y1="30" x2="48.65" y2="66" gradientUnits="userSpaceOnUse"><stop stop-color="#E9F1FF"/><stop offset="1" stop-color="#B2CDFF"/></linearGradient><filter id="csKeyEmboss_0_11" x="26" y="24" width="46" height="50" filterUnits="userSpaceOnUse" color-interpolation-filters="sRGB"><feDropShadow dx="0" dy="0.9" stdDeviation="0.9" flood-color="#2F5DB0" flood-opacity="0.45"/></filter>









<filter id="filter9_dddii_0_11" x="2.98023e-07" y="-1.78814e-07" width="102.247" height="102.247" filterUnits="userSpaceOnUse" color-interpolation-filters="sRGB">
<feFlood flood-opacity="0" result="BackgroundImageFix"/>
<feColorMatrix in="SourceAlpha" type="matrix" values="0 0 0 0 0 0 0 0 0 0 0 0 0 0 0 0 0 0 127 0" result="hardAlpha"/>
<feOffset dy="0.641102"/>
<feGaussianBlur stdDeviation="0.641102"/>
<feComposite in2="hardAlpha" operator="out"/>
<feColorMatrix type="matrix" values="0 0 0 0 0.180924 0 0 0 0 0.356669 0 0 0 0 0.883903 0 0 0 0.24 0"/>
<feBlend mode="normal" in2="BackgroundImageFix" result="effect1_dropShadow_0_11"/>
<feColorMatrix in="SourceAlpha" type="matrix" values="0 0 0 0 0 0 0 0 0 0 0 0 0 0 0 0 0 0 127 0" result="hardAlpha"/>
<feOffset dy="4.90497"/>
<feGaussianBlur stdDeviation="5.12882"/>
<feComposite in2="hardAlpha" operator="out"/>
<feColorMatrix type="matrix" values="0 0 0 0 0.164706 0 0 0 0 0.521569 0 0 0 0 1 0 0 0 0.06 0"/>
<feBlend mode="normal" in2="effect1_dropShadow_0_11" result="effect2_dropShadow_0_11"/>
<feColorMatrix in="SourceAlpha" type="matrix" values="0 0 0 0 0 0 0 0 0 0 0 0 0 0 0 0 0 0 127 0" result="hardAlpha"/>
<feOffset dy="2.33929"/>
<feGaussianBlur stdDeviation="2.56441"/>
<feComposite in2="hardAlpha" operator="out"/>
<feColorMatrix type="matrix" values="0 0 0 0 0.0666667 0 0 0 0 0.137255 0 0 0 0 0.34902 0 0 0 0.05 0"/>
<feBlend mode="normal" in2="effect2_dropShadow_0_11" result="effect3_dropShadow_0_11"/>
<feBlend mode="normal" in="SourceGraphic" in2="effect3_dropShadow_0_11" result="shape"/>
<feColorMatrix in="SourceAlpha" type="matrix" values="0 0 0 0 0 0 0 0 0 0 0 0 0 0 0 0 0 0 127 0" result="hardAlpha"/>
<feOffset dy="2.56441"/>
<feGaussianBlur stdDeviation="0.641102"/>
<feComposite in2="hardAlpha" operator="arithmetic" k2="-1" k3="1"/>
<feColorMatrix type="matrix" values="0 0 0 0 1 0 0 0 0 1 0 0 0 0 1 0 0 0 0.7 0"/>
<feBlend mode="normal" in2="shape" result="effect4_innerShadow_0_11"/>
<feColorMatrix in="SourceAlpha" type="matrix" values="0 0 0 0 0 0 0 0 0 0 0 0 0 0 0 0 0 0 127 0" result="hardAlpha"/>
<feOffset dy="-1.2822"/>
<feGaussianBlur stdDeviation="0.641102"/>
<feComposite in2="hardAlpha" operator="arithmetic" k2="-1" k3="1"/>
<feColorMatrix type="matrix" values="0 0 0 0 0 0 0 0 0 0.159074 0 0 0 0 0.636296 0 0 0 0.44 0"/>
<feBlend mode="normal" in2="effect4_innerShadow_0_11" result="effect5_innerShadow_0_11"/>
</filter>




















<linearGradient id="paint18_linear_0_11" x1="51.1237" y1="5.90624" x2="51.1237" y2="86.5313" gradientUnits="userSpaceOnUse">
<stop stop-color="#E9F1FF"/>
<stop offset="1" stop-color="#B2CDFF"/>
</linearGradient>
<linearGradient id="paint19_linear_0_11" x1="51.1237" y1="5.90624" x2="51.1237" y2="86.5313" gradientUnits="userSpaceOnUse">
<stop stop-color="#E9F1FF"/>
<stop offset="1" stop-color="#82AEFF"/>
</linearGradient>




</defs>
</svg>
