<svg preserveAspectRatio="none" width="100%" height="100%" overflow="visible" style="display: block;" viewBox="0 0 40 40" fill="none" xmlns="http://www.w3.org/2000/svg">
<g id="Glyph" clip-path="url(#clip0_0_96)">
<g id="Vector" filter="url(#filter0_dddii_0_96)">
<path d="M20.6387 21.2643V18.9421C20.3502 19.1732 19.9759 19.3884 19.6373 19.1174C19.556 19.0548 19.4746 18.9985 19.387 18.9421V21.2578C17.4499 21.3965 15.6288 22.2327 14.261 23.6113C9.14056 28.6816 12.8593 37.569 20.013 37.4996C30.3671 37.2152 30.9731 22.3737 20.6387 21.2643ZM24.2126 27.3102L19.2055 32.3173C19.0866 32.4333 18.9271 32.4982 18.7611 32.4982C18.595 32.4982 18.4355 32.4333 18.3167 32.3173L15.8131 29.8138C15.6953 29.6959 15.6291 29.536 15.6291 29.3694C15.6291 29.2027 15.6953 29.0428 15.8132 28.925C15.931 28.8071 16.0909 28.7409 16.2576 28.7409C16.4242 28.7409 16.5841 28.8071 16.7019 28.925L18.7611 30.9904L23.3238 26.4215C23.4424 26.3075 23.601 26.2446 23.7656 26.2462C23.9301 26.2478 24.0874 26.3139 24.2037 26.4303C24.3201 26.5466 24.3862 26.7039 24.3878 26.8684C24.3895 27.033 24.3266 27.1916 24.2126 27.3102Z" fill="url(#paint0_linear_0_96)"/>
<path d="M20.6387 21.2643V18.9421C20.3502 19.1732 19.9759 19.3884 19.6373 19.1174C19.556 19.0548 19.4746 18.9985 19.387 18.9421V21.2578C17.4499 21.3965 15.6288 22.2327 14.261 23.6113C9.14056 28.6816 12.8593 37.569 20.013 37.4996C30.3671 37.2152 30.9731 22.3737 20.6387 21.2643ZM24.2126 27.3102L19.2055 32.3173C19.0866 32.4333 18.9271 32.4982 18.7611 32.4982C18.595 32.4982 18.4355 32.4333 18.3167 32.3173L15.8131 29.8138C15.6953 29.6959 15.6291 29.536 15.6291 29.3694C15.6291 29.2027 15.6953 29.0428 15.8132 28.925C15.931 28.8071 16.0909 28.7409 16.2576 28.7409C16.4242 28.7409 16.5841 28.8071 16.7019 28.925L18.7611 30.9904L23.3238 26.4215C23.4424 26.3075 23.601 26.2446 23.7656 26.2462C23.9301 26.2478 24.0874 26.3139 24.2037 26.4303C24.3201 26.5466 24.3862 26.7039 24.3878 26.8684C24.3895 27.033 24.3266 27.1916 24.2126 27.3102Z" stroke="url(#paint1_linear_0_96)" stroke-width="0.685714" stroke-linecap="round" stroke-linejoin="round"/>
</g>
<g id="Vector_2" filter="url(#filter1_dddii_0_96)">
<path d="M24.4129 3.11349C27.2195 5.81036 28.8323 10.5892 29.0632 16.2195C29.0757 16.4949 29.082 16.7829 29.0882 17.077C29.9151 16.8012 30.7962 16.7288 31.657 16.8661C32.5178 17.0034 33.3327 17.3462 34.0327 17.8656C34.1047 17.9209 34.1882 17.9592 34.2771 17.9776C34.366 17.9961 34.4579 17.9941 34.5459 17.972C34.6523 17.9487 34.7507 17.8976 34.8309 17.824C34.9112 17.7503 34.9705 17.6567 35.0028 17.5527C35.0468 14.322 34.037 11.1649 32.1261 8.55949C30.2153 5.95408 27.5075 4.04225 24.4129 3.11349Z" fill="url(#paint2_linear_0_96)"/>
<path d="M24.4129 3.11349C27.2195 5.81036 28.8323 10.5892 29.0632 16.2195C29.0757 16.4949 29.082 16.7829 29.0882 17.077C29.9151 16.8012 30.7962 16.7288 31.657 16.8661C32.5178 17.0034 33.3327 17.3462 34.0327 17.8656C34.1047 17.9209 34.1882 17.9592 34.2771 17.9776C34.366 17.9961 34.4579 17.9941 34.5459 17.972C34.6523 17.9487 34.7507 17.8976 34.8309 17.824C34.9112 17.7503 34.9705 17.6567 35.0028 17.5527C35.0468 14.322 34.037 11.1649 32.1261 8.55949C30.2153 5.95408 27.5075 4.04225 24.4129 3.11349Z" stroke="url(#paint3_linear_0_96)" stroke-width="0.685714" stroke-linecap="round" stroke-linejoin="round"/>
</g>
<g id="Vector_3" filter="url(#filter2_dddii_0_96)">
<path d="M15.6191 3.11349C12.5547 4.03707 9.86792 5.92047 7.95461 8.4862C6.0413 11.0519 5.00264 14.1644 4.99163 17.3649C4.99251 17.4808 5.02541 17.5942 5.08669 17.6925C5.14798 17.7908 5.23526 17.8703 5.3389 17.9221C5.44253 17.9739 5.55848 17.9961 5.67391 17.9861C5.78935 17.9761 5.89978 17.9344 5.993 17.8656C6.693 17.3462 7.50795 17.0033 8.36872 16.8661C9.22948 16.7288 10.1107 16.8011 10.9375 17.077C10.9437 16.7829 10.95 16.4887 10.9625 16.2008C11.0852 11.6622 12.5657 5.9474 15.6191 3.11349Z" fill="url(#paint4_linear_0_96)"/>
<path d="M15.6191 3.11349C12.5547 4.03707 9.86792 5.92047 7.95461 8.4862C6.0413 11.0519 5.00264 14.1644 4.99163 17.3649C4.99251 17.4808 5.02541 17.5942 5.08669 17.6925C5.14798 17.7908 5.23526 17.8703 5.3389 17.9221C5.44253 17.9739 5.55848 17.9961 5.67391 17.9861C5.78935 17.9761 5.89978 17.9344 5.993 17.8656C6.693 17.3462 7.50795 17.0033 8.36872 16.8661C9.22948 16.7288 10.1107 16.8011 10.9375 17.077C10.9437 16.7829 10.95 16.4887 10.9625 16.2008C11.0852 11.6622 12.5657 5.9474 15.6191 3.11349Z" stroke="url(#paint5_linear_0_96)" stroke-width="0.685714" stroke-linecap="round" stroke-linejoin="round"/>
</g>
<g id="Vector_4" filter="url(#filter3_dddii_0_96)">
<path d="M12.2143 16.2634C12.2285 16.8542 11.9357 17.9475 12.8152 17.9908C12.9507 17.9912 13.0826 17.9473 13.1907 17.8656C14.0809 17.2045 15.1528 16.8331 16.2612 16.8018C17.3696 16.7704 18.4608 17.0807 19.387 17.6904V2.50636C18.191 2.72398 17.0988 3.32614 16.2764 4.22132C13.6796 6.77964 12.2955 12.1773 12.2143 16.2634Z" fill="url(#paint6_linear_0_96)"/>
<path d="M12.2143 16.2634C12.2285 16.8542 11.9357 17.9475 12.8152 17.9908C12.9507 17.9912 13.0826 17.9473 13.1907 17.8656C14.0809 17.2045 15.1528 16.8331 16.2612 16.8018C17.3696 16.7704 18.4608 17.0807 19.387 17.6904V2.50636C18.191 2.72398 17.0988 3.32614 16.2764 4.22132C13.6796 6.77964 12.2955 12.1773 12.2143 16.2634Z" stroke="url(#paint7_linear_0_96)" stroke-width="0.685714" stroke-linecap="round" stroke-linejoin="round"/>
</g>
<g id="Vector_5" filter="url(#filter4_dddii_0_96)">
<path d="M26.835 17.8656C26.9436 17.9464 27.0753 17.99 27.2105 17.99C27.3458 17.99 27.4775 17.9464 27.5861 17.8656C28.0325 17.4921 27.7739 16.7722 27.8115 16.2634C27.5108 10.1275 25.5308 3.56474 20.6389 2.5L20.6388 17.6904C21.5649 17.0807 22.6561 16.7704 23.7645 16.8018C24.8729 16.8331 25.9448 17.2045 26.835 17.8656Z" fill="url(#paint8_linear_0_96)"/>
<path d="M26.835 17.8656C26.9436 17.9464 27.0753 17.99 27.2105 17.99C27.3458 17.99 27.4775 17.9464 27.5861 17.8656C28.0325 17.4921 27.7739 16.7722 27.8115 16.2634C27.5108 10.1275 25.5308 3.56474 20.6389 2.5L20.6388 17.6904C21.5649 17.0807 22.6561 16.7704 23.7645 16.8018C24.8729 16.8331 25.9448 17.2045 26.835 17.8656Z" stroke="url(#paint9_linear_0_96)" stroke-width="0.685714" stroke-linecap="round" stroke-linejoin="round"/>
</g>
</g>
<defs>
<filter id="filter0_dddii_0_96" x="5.18709" y="15.2841" width="29.5998" height="31.9498" filterUnits="userSpaceOnUse" color-interpolation-filters="sRGB">
<feFlood flood-opacity="0" result="BackgroundImageFix"/>
<feColorMatrix in="SourceAlpha" type="matrix" values="0 0 0 0 0 0 0 0 0 0 0 0 0 0 0 0 0 0 127 0" result="hardAlpha"/>
<feOffset dy="0.39707"/>
<feGaussianBlur stdDeviation="0.39707"/>
<feComposite in2="hardAlpha" operator="out"/>
<feColorMatrix type="matrix" values="0 0 0 0 0.180924 0 0 0 0 0.356669 0 0 0 0 0.883903 0 0 0 0.24 0"/>
<feBlend mode="normal" in2="BackgroundImageFix" result="effect1_dropShadow_0_96"/>
<feColorMatrix in="SourceAlpha" type="matrix" values="0 0 0 0 0 0 0 0 0 0 0 0 0 0 0 0 0 0 127 0" result="hardAlpha"/>
<feOffset dy="3.03792"/>
<feGaussianBlur stdDeviation="3.17656"/>
<feComposite in2="hardAlpha" operator="out"/>
<feColorMatrix type="matrix" values="0 0 0 0 0.164706 0 0 0 0 0.521569 0 0 0 0 1 0 0 0 0.06 0"/>
<feBlend mode="normal" in2="effect1_dropShadow_0_96" result="effect2_dropShadow_0_96"/>
<feColorMatrix in="SourceAlpha" type="matrix" values="0 0 0 0 0 0 0 0 0 0 0 0 0 0 0 0 0 0 127 0" result="hardAlpha"/>
<feOffset dy="1.44885"/>
<feGaussianBlur stdDeviation="1.58828"/>
<feComposite in2="hardAlpha" operator="out"/>
<feColorMatrix type="matrix" values="0 0 0 0 0.0666667 0 0 0 0 0.137255 0 0 0 0 0.34902 0 0 0 0.05 0"/>
<feBlend mode="normal" in2="effect2_dropShadow_0_96" result="effect3_dropShadow_0_96"/>
<feBlend mode="normal" in="SourceGraphic" in2="effect3_dropShadow_0_96" result="shape"/>
<feColorMatrix in="SourceAlpha" type="matrix" values="0 0 0 0 0 0 0 0 0 0 0 0 0 0 0 0 0 0 127 0" result="hardAlpha"/>
<feOffset dy="1.58828"/>
<feGaussianBlur stdDeviation="0.39707"/>
<feComposite in2="hardAlpha" operator="arithmetic" k2="-1" k3="1"/>
<feColorMatrix type="matrix" values="0 0 0 0 1 0 0 0 0 1 0 0 0 0 1 0 0 0 0.7 0"/>
<feBlend mode="normal" in2="shape" result="effect4_innerShadow_0_96"/>
<feColorMatrix in="SourceAlpha" type="matrix" values="0 0 0 0 0 0 0 0 0 0 0 0 0 0 0 0 0 0 127 0" result="hardAlpha"/>
<feOffset dy="-0.79414"/>
<feGaussianBlur stdDeviation="0.39707"/>
<feComposite in2="hardAlpha" operator="arithmetic" k2="-1" k3="1"/>
<feColorMatrix type="matrix" values="0 0 0 0 0 0 0 0 0 0.159074 0 0 0 0 0.636296 0 0 0 0.44 0"/>
<feBlend mode="normal" in2="effect4_innerShadow_0_96" result="effect5_innerShadow_0_96"/>
</filter>
<filter id="filter1_dddii_0_96" x="17.7169" y="-0.544604" width="23.9833" height="28.2687" filterUnits="userSpaceOnUse" color-interpolation-filters="sRGB">
<feFlood flood-opacity="0" result="BackgroundImageFix"/>
<feColorMatrix in="SourceAlpha" type="matrix" values="0 0 0 0 0 0 0 0 0 0 0 0 0 0 0 0 0 0 127 0" result="hardAlpha"/>
<feOffset dy="0.39707"/>
<feGaussianBlur stdDeviation="0.39707"/>
<feComposite in2="hardAlpha" operator="out"/>
<feColorMatrix type="matrix" values="0 0 0 0 0.180924 0 0 0 0 0.356669 0 0 0 0 0.883903 0 0 0 0.24 0"/>
<feBlend mode="normal" in2="BackgroundImageFix" result="effect1_dropShadow_0_96"/>
<feColorMatrix in="SourceAlpha" type="matrix" values="0 0 0 0 0 0 0 0 0 0 0 0 0 0 0 0 0 0 127 0" result="hardAlpha"/>
<feOffset dy="3.03792"/>
<feGaussianBlur stdDeviation="3.17656"/>
<feComposite in2="hardAlpha" operator="out"/>
<feColorMatrix type="matrix" values="0 0 0 0 0.164706 0 0 0 0 0.521569 0 0 0 0 1 0 0 0 0.06 0"/>
<feBlend mode="normal" in2="effect1_dropShadow_0_96" result="effect2_dropShadow_0_96"/>
<feColorMatrix in="SourceAlpha" type="matrix" values="0 0 0 0 0 0 0 0 0 0 0 0 0 0 0 0 0 0 127 0" result="hardAlpha"/>
<feOffset dy="1.44885"/>
<feGaussianBlur stdDeviation="1.58828"/>
<feComposite in2="hardAlpha" operator="out"/>
<feColorMatrix type="matrix" values="0 0 0 0 0.0666667 0 0 0 0 0.137255 0 0 0 0 0.34902 0 0 0 0.05 0"/>
<feBlend mode="normal" in2="effect2_dropShadow_0_96" result="effect3_dropShadow_0_96"/>
<feBlend mode="normal" in="SourceGraphic" in2="effect3_dropShadow_0_96" result="shape"/>
<feColorMatrix in="SourceAlpha" type="matrix" values="0 0 0 0 0 0 0 0 0 0 0 0 0 0 0 0 0 0 127 0" result="hardAlpha"/>
<feOffset dy="1.58828"/>
<feGaussianBlur stdDeviation="0.39707"/>
<feComposite in2="hardAlpha" operator="arithmetic" k2="-1" k3="1"/>
<feColorMatrix type="matrix" values="0 0 0 0 1 0 0 0 0 1 0 0 0 0 1 0 0 0 0.7 0"/>
<feBlend mode="normal" in2="shape" result="effect4_innerShadow_0_96"/>
<feColorMatrix in="SourceAlpha" type="matrix" values="0 0 0 0 0 0 0 0 0 0 0 0 0 0 0 0 0 0 127 0" result="hardAlpha"/>
<feOffset dy="-0.79414"/>
<feGaussianBlur stdDeviation="0.39707"/>
<feComposite in2="hardAlpha" operator="arithmetic" k2="-1" k3="1"/>
<feColorMatrix type="matrix" values="0 0 0 0 0 0 0 0 0 0.159074 0 0 0 0 0.636296 0 0 0 0.44 0"/>
<feBlend mode="normal" in2="effect4_innerShadow_0_96" result="effect5_innerShadow_0_96"/>
</filter>
<filter id="filter2_dddii_0_96" x="-1.70436" y="-0.544605" width="24.0195" height="28.2669" filterUnits="userSpaceOnUse" color-interpolation-filters="sRGB">
<feFlood flood-opacity="0" result="BackgroundImageFix"/>
<feColorMatrix in="SourceAlpha" type="matrix" values="0 0 0 0 0 0 0 0 0 0 0 0 0 0 0 0 0 0 127 0" result="hardAlpha"/>
<feOffset dy="0.39707"/>
<feGaussianBlur stdDeviation="0.39707"/>
<feComposite in2="hardAlpha" operator="out"/>
<feColorMatrix type="matrix" values="0 0 0 0 0.180924 0 0 0 0 0.356669 0 0 0 0 0.883903 0 0 0 0.24 0"/>
<feBlend mode="normal" in2="BackgroundImageFix" result="effect1_dropShadow_0_96"/>
<feColorMatrix in="SourceAlpha" type="matrix" values="0 0 0 0 0 0 0 0 0 0 0 0 0 0 0 0 0 0 127 0" result="hardAlpha"/>
<feOffset dy="3.03792"/>
<feGaussianBlur stdDeviation="3.17656"/>
<feComposite in2="hardAlpha" operator="out"/>
<feColorMatrix type="matrix" values="0 0 0 0 0.164706 0 0 0 0 0.521569 0 0 0 0 1 0 0 0 0.06 0"/>
<feBlend mode="normal" in2="effect1_dropShadow_0_96" result="effect2_dropShadow_0_96"/>
<feColorMatrix in="SourceAlpha" type="matrix" values="0 0 0 0 0 0 0 0 0 0 0 0 0 0 0 0 0 0 127 0" result="hardAlpha"/>
<feOffset dy="1.44885"/>
<feGaussianBlur stdDeviation="1.58828"/>
<feComposite in2="hardAlpha" operator="out"/>
<feColorMatrix type="matrix" values="0 0 0 0 0.0666667 0 0 0 0 0.137255 0 0 0 0 0.34902 0 0 0 0.05 0"/>
<feBlend mode="normal" in2="effect2_dropShadow_0_96" result="effect3_dropShadow_0_96"/>
<feBlend mode="normal" in="SourceGraphic" in2="effect3_dropShadow_0_96" result="shape"/>
<feColorMatrix in="SourceAlpha" type="matrix" values="0 0 0 0 0 0 0 0 0 0 0 0 0 0 0 0 0 0 127 0" result="hardAlpha"/>
<feOffset dy="1.58828"/>
<feGaussianBlur stdDeviation="0.39707"/>
<feComposite in2="hardAlpha" operator="arithmetic" k2="-1" k3="1"/>
<feColorMatrix type="matrix" values="0 0 0 0 1 0 0 0 0 1 0 0 0 0 1 0 0 0 0.7 0"/>
<feBlend mode="normal" in2="shape" result="effect4_innerShadow_0_96"/>
<feColorMatrix in="SourceAlpha" type="matrix" values="0 0 0 0 0 0 0 0 0 0 0 0 0 0 0 0 0 0 127 0" result="hardAlpha"/>
<feOffset dy="-0.79414"/>
<feGaussianBlur stdDeviation="0.39707"/>
<feComposite in2="hardAlpha" operator="arithmetic" k2="-1" k3="1"/>
<feColorMatrix type="matrix" values="0 0 0 0 0 0 0 0 0 0.159074 0 0 0 0 0.636296 0 0 0 0.44 0"/>
<feBlend mode="normal" in2="effect4_innerShadow_0_96" result="effect5_innerShadow_0_96"/>
</filter>
<filter id="filter3_dddii_0_96" x="5.48264" y="-1.1517" width="20.6003" height="28.8764" filterUnits="userSpaceOnUse" color-interpolation-filters="sRGB">
<feFlood flood-opacity="0" result="BackgroundImageFix"/>
<feColorMatrix in="SourceAlpha" type="matrix" values="0 0 0 0 0 0 0 0 0 0 0 0 0 0 0 0 0 0 127 0" result="hardAlpha"/>
<feOffset dy="0.39707"/>
<feGaussianBlur stdDeviation="0.39707"/>
<feComposite in2="hardAlpha" operator="out"/>
<feColorMatrix type="matrix" values="0 0 0 0 0.180924 0 0 0 0 0.356669 0 0 0 0 0.883903 0 0 0 0.24 0"/>
<feBlend mode="normal" in2="BackgroundImageFix" result="effect1_dropShadow_0_96"/>
<feColorMatrix in="SourceAlpha" type="matrix" values="0 0 0 0 0 0 0 0 0 0 0 0 0 0 0 0 0 0 127 0" result="hardAlpha"/>
<feOffset dy="3.03792"/>
<feGaussianBlur stdDeviation="3.17656"/>
<feComposite in2="hardAlpha" operator="out"/>
<feColorMatrix type="matrix" values="0 0 0 0 0.164706 0 0 0 0 0.521569 0 0 0 0 1 0 0 0 0.06 0"/>
<feBlend mode="normal" in2="effect1_dropShadow_0_96" result="effect2_dropShadow_0_96"/>
<feColorMatrix in="SourceAlpha" type="matrix" values="0 0 0 0 0 0 0 0 0 0 0 0 0 0 0 0 0 0 127 0" result="hardAlpha"/>
<feOffset dy="1.44885"/>
<feGaussianBlur stdDeviation="1.58828"/>
<feComposite in2="hardAlpha" operator="out"/>
<feColorMatrix type="matrix" values="0 0 0 0 0.0666667 0 0 0 0 0.137255 0 0 0 0 0.34902 0 0 0 0.05 0"/>
<feBlend mode="normal" in2="effect2_dropShadow_0_96" result="effect3_dropShadow_0_96"/>
<feBlend mode="normal" in="SourceGraphic" in2="effect3_dropShadow_0_96" result="shape"/>
<feColorMatrix in="SourceAlpha" type="matrix" values="0 0 0 0 0 0 0 0 0 0 0 0 0 0 0 0 0 0 127 0" result="hardAlpha"/>
<feOffset dy="1.58828"/>
<feGaussianBlur stdDeviation="0.39707"/>
<feComposite in2="hardAlpha" operator="arithmetic" k2="-1" k3="1"/>
<feColorMatrix type="matrix" values="0 0 0 0 1 0 0 0 0 1 0 0 0 0 1 0 0 0 0.7 0"/>
<feBlend mode="normal" in2="shape" result="effect4_innerShadow_0_96"/>
<feColorMatrix in="SourceAlpha" type="matrix" values="0 0 0 0 0 0 0 0 0 0 0 0 0 0 0 0 0 0 127 0" result="hardAlpha"/>
<feOffset dy="-0.79414"/>
<feGaussianBlur stdDeviation="0.39707"/>
<feComposite in2="hardAlpha" operator="arithmetic" k2="-1" k3="1"/>
<feColorMatrix type="matrix" values="0 0 0 0 0 0 0 0 0 0.159074 0 0 0 0 0.636296 0 0 0 0.44 0"/>
<feBlend mode="normal" in2="effect4_innerShadow_0_96" result="effect5_innerShadow_0_96"/>
</filter>
<filter id="filter4_dddii_0_96" x="13.9428" y="-1.15806" width="20.6055" height="28.8819" filterUnits="userSpaceOnUse" color-interpolation-filters="sRGB">
<feFlood flood-opacity="0" result="BackgroundImageFix"/>
<feColorMatrix in="SourceAlpha" type="matrix" values="0 0 0 0 0 0 0 0 0 0 0 0 0 0 0 0 0 0 127 0" result="hardAlpha"/>
<feOffset dy="0.39707"/>
<feGaussianBlur stdDeviation="0.39707"/>
<feComposite in2="hardAlpha" operator="out"/>
<feColorMatrix type="matrix" values="0 0 0 0 0.180924 0 0 0 0 0.356669 0 0 0 0 0.883903 0 0 0 0.24 0"/>
<feBlend mode="normal" in2="BackgroundImageFix" result="effect1_dropShadow_0_96"/>
<feColorMatrix in="SourceAlpha" type="matrix" values="0 0 0 0 0 0 0 0 0 0 0 0 0 0 0 0 0 0 127 0" result="hardAlpha"/>
<feOffset dy="3.03792"/>
<feGaussianBlur stdDeviation="3.17656"/>
<feComposite in2="hardAlpha" operator="out"/>
<feColorMatrix type="matrix" values="0 0 0 0 0.164706 0 0 0 0 0.521569 0 0 0 0 1 0 0 0 0.06 0"/>
<feBlend mode="normal" in2="effect1_dropShadow_0_96" result="effect2_dropShadow_0_96"/>
<feColorMatrix in="SourceAlpha" type="matrix" values="0 0 0 0 0 0 0 0 0 0 0 0 0 0 0 0 0 0 127 0" result="hardAlpha"/>
<feOffset dy="1.44885"/>
<feGaussianBlur stdDeviation="1.58828"/>
<feComposite in2="hardAlpha" operator="out"/>
<feColorMatrix type="matrix" values="0 0 0 0 0.0666667 0 0 0 0 0.137255 0 0 0 0 0.34902 0 0 0 0.05 0"/>
<feBlend mode="normal" in2="effect2_dropShadow_0_96" result="effect3_dropShadow_0_96"/>
<feBlend mode="normal" in="SourceGraphic" in2="effect3_dropShadow_0_96" result="shape"/>
<feColorMatrix in="SourceAlpha" type="matrix" values="0 0 0 0 0 0 0 0 0 0 0 0 0 0 0 0 0 0 127 0" result="hardAlpha"/>
<feOffset dy="1.58828"/>
<feGaussianBlur stdDeviation="0.39707"/>
<feComposite in2="hardAlpha" operator="arithmetic" k2="-1" k3="1"/>
<feColorMatrix type="matrix" values="0 0 0 0 1 0 0 0 0 1 0 0 0 0 1 0 0 0 0.7 0"/>
<feBlend mode="normal" in2="shape" result="effect4_innerShadow_0_96"/>
<feColorMatrix in="SourceAlpha" type="matrix" values="0 0 0 0 0 0 0 0 0 0 0 0 0 0 0 0 0 0 127 0" result="hardAlpha"/>
<feOffset dy="-0.79414"/>
<feGaussianBlur stdDeviation="0.39707"/>
<feComposite in2="hardAlpha" operator="arithmetic" k2="-1" k3="1"/>
<feColorMatrix type="matrix" values="0 0 0 0 0 0 0 0 0 0.159074 0 0 0 0 0.636296 0 0 0 0.44 0"/>
<feBlend mode="normal" in2="effect4_innerShadow_0_96" result="effect5_innerShadow_0_96"/>
</filter>
<linearGradient id="paint0_linear_0_96" x1="19.9873" y1="18.9421" x2="19.9873" y2="37.5" gradientUnits="userSpaceOnUse">
<stop stop-color="#E9F1FF"/>
<stop offset="1" stop-color="#B2CDFF"/>
</linearGradient>
<linearGradient id="paint1_linear_0_96" x1="19.9873" y1="18.9421" x2="19.9873" y2="37.5" gradientUnits="userSpaceOnUse">
<stop stop-color="#E9F1FF"/>
<stop offset="1" stop-color="#82AEFF"/>
</linearGradient>
<linearGradient id="paint2_linear_0_96" x1="29.7085" y1="3.11349" x2="29.7085" y2="17.9902" gradientUnits="userSpaceOnUse">
<stop stop-color="#E9F1FF"/>
<stop offset="1" stop-color="#B2CDFF"/>
</linearGradient>
<linearGradient id="paint3_linear_0_96" x1="29.7085" y1="3.11349" x2="29.7085" y2="17.9902" gradientUnits="userSpaceOnUse">
<stop stop-color="#E9F1FF"/>
<stop offset="1" stop-color="#82AEFF"/>
</linearGradient>
<linearGradient id="paint4_linear_0_96" x1="10.3054" y1="3.11349" x2="10.3054" y2="17.9884" gradientUnits="userSpaceOnUse">
<stop stop-color="#E9F1FF"/>
<stop offset="1" stop-color="#B2CDFF"/>
</linearGradient>
<linearGradient id="paint5_linear_0_96" x1="10.3054" y1="3.11349" x2="10.3054" y2="17.9884" gradientUnits="userSpaceOnUse">
<stop stop-color="#E9F1FF"/>
<stop offset="1" stop-color="#82AEFF"/>
</linearGradient>
<linearGradient id="paint6_linear_0_96" x1="15.7828" y1="2.50636" x2="15.7828" y2="17.9908" gradientUnits="userSpaceOnUse">
<stop stop-color="#E9F1FF"/>
<stop offset="1" stop-color="#B2CDFF"/>
</linearGradient>
<linearGradient id="paint7_linear_0_96" x1="15.7828" y1="2.50636" x2="15.7828" y2="17.9908" gradientUnits="userSpaceOnUse">
<stop stop-color="#E9F1FF"/>
<stop offset="1" stop-color="#82AEFF"/>
</linearGradient>
<linearGradient id="paint8_linear_0_96" x1="24.2455" y1="2.5" x2="24.2455" y2="17.99" gradientUnits="userSpaceOnUse">
<stop stop-color="#E9F1FF"/>
<stop offset="1" stop-color="#B2CDFF"/>
</linearGradient>
<linearGradient id="paint9_linear_0_96" x1="24.2455" y1="2.5" x2="24.2455" y2="17.99" gradientUnits="userSpaceOnUse">
<stop stop-color="#E9F1FF"/>
<stop offset="1" stop-color="#82AEFF"/>
</linearGradient>
<clipPath id="clip0_0_96">
<rect width="40" height="40" fill="white"/>
</clipPath>
</defs>
</svg>
