<svg preserveAspectRatio="none" width="100%" height="100%" overflow="visible" style="display: block;" viewBox="0 0 378 378" fill="none" xmlns="http://www.w3.org/2000/svg">
<path id="Union" opacity="0.1" fill-rule="evenodd" clip-rule="evenodd" d="M23.2969 307.453V330.422H0V331.078H23.2969V354.047H0V354.703H23.2969V378H23.9531V354.703H46.9219V378H47.5781V354.703H70.5469V378H71.2031V354.703H94.1719V378H94.8281V354.703H117.797V378H118.453V354.703H141.422V378H142.078V354.703H165.047V378H165.703V354.703H188.672V378H189.328V354.703H212.297V378H212.953V354.703H235.922V378H236.578V354.703H259.547V378H260.203V354.703H283.172V378H283.828V354.703H306.797V378H307.453V354.703H330.422V378H331.078V354.703H354.047V378H354.703V354.703H378V354.047H354.703V331.078H378V330.422H354.703V307.453H378V306.797H354.703V283.828H378V283.172H354.703V260.203H378V259.547H354.703V236.578H378V235.922H354.703V212.953H378V212.297H354.703V189.328H378V188.672H354.703V165.703H378V165.047H354.703V142.078H378V141.422H354.703V118.453H378V117.797H354.703V94.8281H378V94.1719H354.703V71.2031H378V70.5469H354.703V47.5781H378V46.9219H354.703V23.9531H378V23.2969H354.703V0H354.047V23.2969H331.078V0H330.422V23.2969H307.453V0H306.797V23.2969H283.828V0H283.172V23.2969H260.203V0H259.547V23.2969H236.578V0H235.922V23.2969H212.953V0H212.297V23.2969H189.328V0H188.672V23.2969H165.703V0H165.047V23.2969H142.078V0H141.422V23.2969H118.453V0H117.797V23.2969H94.8281V0H94.1719V23.2969H71.2031V0H70.5469V23.2969H47.5781V0H46.9219V23.2969H23.9531V0H23.2969V23.2969H0V23.9531H23.2969V46.9219H0V47.5781H23.2969V70.5469H0V71.2031H23.2969V94.1719H0V94.8281H23.2969V117.797H0V118.453H23.2969V141.422H0V142.078H23.2969V165.047H0V165.703H23.2969V188.672H0V189.328H23.2969V212.297H0V212.953H23.2969V235.922H0V236.578H23.2969V259.547H0V260.203H23.2969V283.172H0V283.828H23.2969V306.797H0V307.453H23.2969ZM354.047 354.047V331.078H331.078V354.047H354.047ZM330.422 354.047V331.078H307.453V354.047H330.422ZM306.797 354.047V331.078H283.828V354.047H306.797ZM283.172 354.047V331.078H260.203V354.047H283.172ZM259.547 354.047V331.078H236.578V354.047H259.547ZM235.922 354.047V331.078H212.953V354.047H235.922ZM212.297 354.047V331.078H189.328V354.047H212.297ZM188.672 354.047V331.078H165.703V354.047H188.672ZM165.047 354.047V331.078H142.078V354.047H165.047ZM141.422 354.047V331.078H118.453V354.047H141.422ZM117.797 354.047V331.078H94.8281V354.047H117.797ZM94.1719 354.047V331.078H71.2031V354.047H94.1719ZM70.5469 354.047V331.078H47.5781V354.047H70.5469ZM46.9219 354.047V331.078H23.9531V354.047H46.9219ZM46.9219 330.422H23.9531V307.453H46.9219V330.422ZM70.5469 330.422H47.5781V307.453H70.5469V330.422ZM94.1719 330.422H71.2031V307.453H94.1719V330.422ZM117.797 330.422H94.8281V307.453H117.797V330.422ZM141.422 330.422H118.453V307.453H141.422V330.422ZM165.047 330.422H142.078V307.453H165.047V330.422ZM188.672 330.422H165.703V307.453H188.672V330.422ZM212.297 330.422H189.328V307.453H212.297V330.422ZM235.922 330.422H212.953V307.453H235.922V330.422ZM259.547 330.422H236.578V307.453H259.547V330.422ZM283.172 330.422H260.203V307.453H283.172V330.422ZM306.797 330.422H283.828V307.453H306.797V330.422ZM330.422 330.422H307.453V307.453H330.422V330.422ZM354.047 330.422H331.078V307.453H354.047V330.422ZM354.047 23.9531H331.078V46.9219H354.047V23.9531ZM354.047 47.5781H331.078V70.5469H354.047V47.5781ZM354.047 71.2031H331.078V94.1719H354.047V71.2031ZM354.047 94.8281H331.078V117.797H354.047V94.8281ZM354.047 118.453H331.078V141.422H354.047V118.453ZM354.047 142.078H331.078V165.047H354.047V142.078ZM354.047 165.703H331.078V188.672H354.047V165.703ZM354.047 189.328H331.078V212.297H354.047V189.328ZM354.047 212.953H331.078V235.922H354.047V212.953ZM354.047 236.578H331.078V259.547H354.047V236.578ZM354.047 260.203H331.078V283.172H354.047V260.203ZM354.047 283.828H331.078V306.797H354.047V283.828ZM330.422 283.828V306.797H307.453V283.828H330.422ZM330.422 260.203V283.172H307.453V260.203H330.422ZM330.422 236.578V259.547H307.453V236.578H330.422ZM330.422 212.953V235.922H307.453V212.953H330.422ZM330.422 189.328V212.297H307.453V189.328H330.422ZM330.422 165.703V188.672H307.453V165.703H330.422ZM330.422 142.078V165.047H307.453V142.078H330.422ZM330.422 118.453V141.422H307.453V118.453H330.422ZM330.422 94.8281V117.797H307.453V94.8281H330.422ZM330.422 71.2031V94.1719H307.453V71.2031H330.422ZM330.422 47.5781V70.5469H307.453V47.5781H330.422ZM330.422 23.9531V46.9219H307.453V23.9531H330.422ZM23.9531 306.797H46.9219V283.828H23.9531V306.797ZM47.5781 306.797H70.5469V283.828H47.5781V306.797ZM71.2031 306.797H94.1719V283.828H71.2031V306.797ZM94.8281 306.797H117.797V283.828H94.8281V306.797ZM118.453 306.797H141.422V283.828H118.453V306.797ZM142.078 306.797H165.047V283.828H142.078V306.797ZM165.703 306.797H188.672V283.828H165.703V306.797ZM189.328 306.797H212.297V283.828H189.328V306.797ZM212.953 306.797H235.922V283.828H212.953V306.797ZM236.578 306.797H259.547V283.828H236.578V306.797ZM260.203 306.797H283.172V283.828H260.203V306.797ZM283.828 306.797H306.797V283.828H283.828V306.797ZM306.797 260.203V283.172H283.828V260.203H306.797ZM306.797 236.578V259.547H283.828V236.578H306.797ZM306.797 212.953V235.922H283.828V212.953H306.797ZM306.797 189.328V212.297H283.828V189.328H306.797ZM306.797 165.703V188.672H283.828V165.703H306.797ZM306.797 142.078V165.047H283.828V142.078H306.797ZM306.797 118.453V141.422H283.828V118.453H306.797ZM306.797 94.8281V117.797H283.828V94.8281H306.797ZM306.797 71.2031V94.1719H283.828V71.2031H306.797ZM306.797 47.5781V70.5469H283.828V47.5781H306.797ZM306.797 23.9531V46.9219H283.828V23.9531H306.797ZM23.9531 283.172H46.9219V260.203H23.9531V283.172ZM47.5781 283.172H70.5469V260.203H47.5781V283.172ZM71.2031 283.172H94.1719V260.203H71.2031V283.172ZM94.8281 283.172H117.797V260.203H94.8281V283.172ZM118.453 283.172H141.422V260.203H118.453V283.172ZM142.078 283.172H165.047V260.203H142.078V283.172ZM165.703 283.172H188.672V260.203H165.703V283.172ZM189.328 283.172H212.297V260.203H189.328V283.172ZM212.953 283.172H235.922V260.203H212.953V283.172ZM236.578 283.172H259.547V260.203H236.578V283.172ZM260.203 283.172H283.172V260.203H260.203V283.172ZM283.172 236.578V259.547H260.203V236.578H283.172ZM283.172 212.953V235.922H260.203V212.953H283.172ZM283.172 189.328V212.297H260.203V189.328H283.172ZM283.172 165.703V188.672H260.203V165.703H283.172ZM283.172 142.078V165.047H260.203V142.078H283.172ZM283.172 118.453V141.422H260.203V118.453H283.172ZM283.172 94.8281V117.797H260.203V94.8281H283.172ZM283.172 71.2031V94.1719H260.203V71.2031H283.172ZM283.172 47.5781V70.5469H260.203V47.5781H283.172ZM283.172 23.9531V46.9219H260.203V23.9531H283.172ZM23.9531 259.547H46.9219V236.578H23.9531V259.547ZM47.5781 259.547H70.5469V236.578H47.5781V259.547ZM71.2031 259.547H94.1719V236.578H71.2031V259.547ZM94.8281 259.547H117.797V236.578H94.8281V259.547ZM118.453 259.547H141.422V236.578H118.453V259.547ZM142.078 259.547H165.047V236.578H142.078V259.547ZM165.703 259.547H188.672V236.578H165.703V259.547ZM189.328 259.547H212.297V236.578H189.328V259.547ZM212.953 259.547H235.922V236.578H212.953V259.547ZM236.578 259.547H259.547V236.578H236.578V259.547ZM259.547 212.953V235.922H236.578V212.953H259.547ZM259.547 189.328V212.297H236.578V189.328H259.547ZM259.547 165.703V188.672H236.578V165.703H259.547ZM259.547 142.078V165.047H236.578V142.078H259.547ZM259.547 118.453V141.422H236.578V118.453H259.547ZM259.547 94.8281V117.797H236.578V94.8281H259.547ZM259.547 71.2031V94.1719H236.578V71.2031H259.547ZM259.547 47.5781V70.5469H236.578V47.5781H259.547ZM259.547 23.9531V46.9219H236.578V23.9531H259.547ZM23.9531 235.922H46.9219V212.953H23.9531V235.922ZM47.5781 235.922H70.5469V212.953H47.5781V235.922ZM71.2031 235.922H94.1719V212.953H71.2031V235.922ZM94.8281 235.922H117.797V212.953H94.8281V235.922ZM118.453 235.922H141.422V212.953H118.453V235.922ZM142.078 235.922H165.047V212.953H142.078V235.922ZM165.703 235.922H188.672V212.953H165.703V235.922ZM189.328 235.922H212.297V212.953H189.328V235.922ZM212.953 235.922H235.922V212.953H212.953V235.922ZM235.922 189.328V212.297H212.953V189.328H235.922ZM235.922 165.703V188.672H212.953V165.703H235.922ZM235.922 142.078V165.047H212.953V142.078H235.922ZM235.922 118.453V141.422H212.953V118.453H235.922ZM235.922 94.8281V117.797H212.953V94.8281H235.922ZM235.922 71.2031V94.1719H212.953V71.2031H235.922ZM235.922 47.5781V70.5469H212.953V47.5781H235.922ZM235.922 23.9531V46.9219H212.953V23.9531H235.922ZM23.9531 212.297H46.9219V189.328H23.9531V212.297ZM47.5781 212.297H70.5469V189.328H47.5781V212.297ZM71.2031 212.297H94.1719V189.328H71.2031V212.297ZM94.8281 212.297H117.797V189.328H94.8281V212.297ZM118.453 212.297H141.422V189.328H118.453V212.297ZM142.078 212.297H165.047V189.328H142.078V212.297ZM165.703 212.297H188.672V189.328H165.703V212.297ZM189.328 212.297H212.297V189.328H189.328V212.297ZM212.297 165.703V188.672H189.328V165.703H212.297ZM212.297 142.078V165.047H189.328V142.078H212.297ZM212.297 118.453V141.422H189.328V118.453H212.297ZM212.297 94.8281V117.797H189.328V94.8281H212.297ZM212.297 71.2031V94.1719H189.328V71.2031H212.297ZM212.297 47.5781V70.5469H189.328V47.5781H212.297ZM212.297 23.9531V46.9219H189.328V23.9531H212.297ZM23.9531 188.672H46.9219V165.703H23.9531V188.672ZM47.5781 188.672H70.5469V165.703H47.5781V188.672ZM71.2031 188.672H94.1719V165.703H71.2031V188.672ZM94.8281 188.672H117.797V165.703H94.8281V188.672ZM118.453 188.672H141.422V165.703H118.453V188.672ZM142.078 188.672H165.047V165.703H142.078V188.672ZM165.703 188.672H188.672V165.703H165.703V188.672ZM188.672 142.078V165.047H165.703V142.078H188.672ZM188.672 118.453V141.422H165.703V118.453H188.672ZM188.672 94.8281V117.797H165.703V94.8281H188.672ZM188.672 71.2031V94.1719H165.703V71.2031H188.672ZM188.672 47.5781V70.5469H165.703V47.5781H188.672ZM188.672 23.9531V46.9219H165.703V23.9531H188.672ZM23.9531 165.047H46.9219V142.078H23.9531V165.047ZM47.5781 165.047H70.5469V142.078H47.5781V165.047ZM71.2031 165.047H94.1719V142.078H71.2031V165.047ZM94.8281 165.047H117.797V142.078H94.8281V165.047ZM118.453 165.047H141.422V142.078H118.453V165.047ZM142.078 165.047H165.047V142.078H142.078V165.047ZM165.047 118.453V141.422H142.078V118.453H165.047ZM165.047 94.8281V117.797H142.078V94.8281H165.047ZM165.047 71.2031V94.1719H142.078V71.2031H165.047ZM165.047 47.5781V70.5469H142.078V47.5781H165.047ZM165.047 23.9531V46.9219H142.078V23.9531H165.047ZM23.9531 141.422H46.9219V118.453H23.9531V141.422ZM47.5781 141.422H70.5469V118.453H47.5781V141.422ZM71.2031 141.422H94.1719V118.453H71.2031V141.422ZM94.8281 141.422H117.797V118.453H94.8281V141.422ZM118.453 141.422H141.422V118.453H118.453V141.422ZM141.422 94.8281V117.797H118.453V94.8281H141.422ZM141.422 71.2031V94.1719H118.453V71.2031H141.422ZM141.422 47.5781V70.5469H118.453V47.5781H141.422ZM141.422 23.9531V46.9219H118.453V23.9531H141.422ZM23.9531 117.797H46.9219V94.8281H23.9531V117.797ZM47.5781 117.797H70.5469V94.8281H47.5781V117.797ZM71.2031 117.797H94.1719V94.8281H71.2031V117.797ZM94.8281 117.797H117.797V94.8281H94.8281V117.797ZM117.797 71.2031V94.1719H94.8281V71.2031H117.797ZM117.797 47.5781V70.5469H94.8281V47.5781H117.797ZM117.797 23.9531V46.9219H94.8281V23.9531H117.797ZM23.9531 94.1719H46.9219V71.2031H23.9531V94.1719ZM47.5781 94.1719H70.5469V71.2031L47.5781 71.2031V94.1719ZM71.2031 94.1719H94.1719V71.2031H71.2031V94.1719ZM94.1719 47.5781V70.5469H71.2031V47.5781H94.1719ZM94.1719 23.9531V46.9219H71.2031V23.9531H94.1719ZM23.9531 70.5469H46.9219V47.5781H23.9531V70.5469ZM47.5781 70.5469L70.5469 70.5469V47.5781H47.5781V70.5469ZM70.5469 23.9531V46.9219H47.5781V23.9531H70.5469ZM23.9531 46.9219H46.9219V23.9531H23.9531V46.9219Z" fill="url(#paint0_radial_0_121)"/>
<defs>
<radialGradient id="paint0_radial_0_121" cx="0" cy="0" r="1" gradientUnits="userSpaceOnUse" gradientTransform="translate(189 189) rotate(90) scale(189)">
<stop stop-color="white"/>
<stop offset="1" stop-color="white" stop-opacity="0"/>
</radialGradient>
</defs>
</svg>
